<svg width="22" height="20" viewBox="0 0 22 20" fill="none" xmlns="http://www.w3.org/2000/svg">
<path d="M21.9996 8.99961C21.9996 8.93393 21.9854 8.86889 21.9578 8.80821C21.9302 8.74752 21.8897 8.69238 21.8386 8.64594C21.7875 8.5995 21.7269 8.56267 21.6601 8.53757C21.5934 8.51246 21.5218 8.49956 21.4496 8.49961H20.3496V7.5C20.3496 7.10218 20.1758 6.72064 19.8663 6.43934C19.5569 6.15804 19.1372 6 18.6996 6C18.4829 5.99995 18.2684 6.03871 18.0682 6.11408C17.8679 6.18944 17.686 6.29993 17.5328 6.43923C17.3796 6.57852 17.258 6.7439 17.1751 6.92591C17.0922 7.10793 17.0496 7.303 17.0497 7.5V17.5C17.0498 17.8102 17.1556 18.1127 17.3526 18.3659C17.5496 18.6191 17.828 18.8106 18.1496 18.9141V19.5C18.1496 19.6326 18.2076 19.7598 18.3107 19.8536C18.4139 19.9473 18.5538 20 18.6996 20C18.8455 20 18.9854 19.9473 19.0885 19.8536C19.1917 19.7598 19.2496 19.6326 19.2496 19.5V18.9141C19.5713 18.8106 19.8498 18.6191 20.0469 18.3659C20.2439 18.1127 20.3498 17.8102 20.35 17.5V9.5H20.9V10.5C20.9 10.6326 20.958 10.7598 21.0611 10.8536C21.1643 10.9473 21.3041 11 21.45 11C21.5959 11 21.7358 10.9473 21.8389 10.8536C21.9421 10.7598 22 10.6326 22 10.5L21.9996 8.99961ZM18.6996 6.99961C18.7719 6.99961 18.8435 7.01256 18.9102 7.03771C18.977 7.06286 19.0376 7.09972 19.0887 7.14619C19.1398 7.19266 19.1803 7.24783 19.2079 7.30854C19.2355 7.36925 19.2497 7.43431 19.2496 7.5V8.5H18.1496V7.5C18.1498 7.36753 18.2077 7.24051 18.3107 7.14684C18.4138 7.05316 18.5535 7.00049 18.6992 7.00039L18.6996 6.99961ZM18.6996 17.9996C18.554 17.9993 18.4144 17.9466 18.3114 17.8529C18.2084 17.7593 18.1504 17.6324 18.1501 17.5V9.5H19.2496V17.5C19.2494 17.6323 19.1916 17.7592 19.0887 17.8529C18.9859 17.9466 18.8465 17.9995 18.7009 18L18.6996 17.9996ZM2.74995 0C2.02062 0 1.32116 0.263392 0.805441 0.732233C0.289726 1.20107 0 1.83696 0 2.5L0 17.5C0 18.163 0.289726 18.7989 0.805441 19.2678C1.32116 19.7366 2.02062 20 2.74995 20H12.6498C13.3791 20 14.0785 19.7366 14.5943 19.2678C15.11 18.7989 15.3997 18.163 15.3997 17.5V6L8.80584 0H2.74995ZM4.9499 9.5H8.24984C8.39571 9.5 8.5356 9.55268 8.63874 9.64645C8.74188 9.74022 8.79983 9.86739 8.79983 10C8.79983 10.1326 8.74188 10.2598 8.63874 10.3536C8.5356 10.4473 8.39571 10.5 8.24984 10.5H4.9499C4.80404 10.5 4.66415 10.4473 4.561 10.3536C4.45786 10.2598 4.39991 10.1326 4.39991 10C4.39991 9.86739 4.45786 9.74022 4.561 9.64645C4.66415 9.55268 4.80404 9.5 4.9499 9.5ZM10.4335 14.5H4.9499C4.80404 14.5 4.66415 14.4473 4.561 14.3536C4.45786 14.2598 4.39991 14.1326 4.39991 14C4.39991 13.8674 4.45786 13.7402 4.561 13.6464C4.66415 13.5527 4.80404 13.5 4.9499 13.5H10.4335C10.5793 13.5 10.7192 13.5527 10.8224 13.6464C10.9255 13.7402 10.9835 13.8674 10.9835 14C10.9835 14.1326 10.9255 14.2598 10.8224 14.3536C10.7192 14.4473 10.5793 14.5 10.4335 14.5ZM10.4498 12.5H4.9499C4.80404 12.5 4.66415 12.4473 4.561 12.3536C4.45786 12.2598 4.39991 12.1326 4.39991 12C4.39991 11.8674 4.45786 11.7402 4.561 11.6464C4.66415 11.5527 4.80404 11.5 4.9499 11.5H10.4498C10.5957 11.5 10.7356 11.5527 10.8387 11.6464C10.9418 11.7402 10.9998 11.8674 10.9998 12C10.9998 12.1326 10.9418 12.2598 10.8387 12.3536C10.7356 12.4473 10.5957 12.5 10.4498 12.5ZM10.9998 6.5C10.2705 6.5 9.57099 6.23661 9.05528 5.76777C8.53956 5.29893 8.24984 4.66304 8.24984 4V1L14.2997 6.5H10.9998Z" fill="#FEFAE0"/>
</svg>
