<svg width="19" height="20" viewBox="0 0 19 20" fill="none" xmlns="http://www.w3.org/2000/svg">
<path d="M12 17C12 15.9391 12.4214 14.9217 13.1716 14.1716C13.9217 13.4214 14.9391 13 16 13V6L10.0055 0H2.5C1.83696 0 1.20107 0.263392 0.732233 0.732233C0.263392 1.20107 0 1.83696 0 2.5V17.5C0 18.163 0.263392 18.7989 0.732233 19.2678C1.20107 19.7366 1.83696 20 2.5 20H13.3594C12.9321 19.6257 12.5898 19.1644 12.3554 18.647C12.1209 18.1296 11.9998 17.568 12 17ZM9.5 1L15 6.5H12C11.337 6.5 10.7011 6.23661 10.2322 5.76777C9.76339 5.29893 9.5 4.66304 9.5 4V1ZM4.5 9.5H8.5C8.63261 9.5 8.75978 9.55268 8.85355 9.64645C8.94732 9.74021 9 9.86739 9 10C9 10.1326 8.94732 10.2598 8.85355 10.3536C8.75978 10.4473 8.63261 10.5 8.5 10.5H4.5C4.36739 10.5 4.24021 10.4473 4.14645 10.3536C4.05268 10.2598 4 10.1326 4 10C4 9.86739 4.05268 9.74021 4.14645 9.64645C4.24021 9.55268 4.36739 9.5 4.5 9.5ZM4.5 11.5H11.5C11.6326 11.5 11.7598 11.5527 11.8536 11.6464C11.9473 11.7402 12 11.8674 12 12C12 12.1326 11.9473 12.2598 11.8536 12.3536C11.7598 12.4473 11.6326 12.5 11.5 12.5H4.5C4.36739 12.5 4.24021 12.4473 4.14645 12.3536C4.05268 12.2598 4 12.1326 4 12C4 11.8674 4.05268 11.7402 4.14645 11.6464C4.24021 11.5527 4.36739 11.5 4.5 11.5ZM11.4852 14.5H4.5C4.36739 14.5 4.24021 14.4473 4.14645 14.3536C4.05268 14.2598 4 14.1326 4 14C4 13.8674 4.05268 13.7402 4.14645 13.6464C4.24021 13.5527 4.36739 13.5 4.5 13.5H11.4852C11.6178 13.5 11.7449 13.5527 11.8387 13.6464C11.9325 13.7402 11.9852 13.8674 11.9852 14C11.9852 14.1326 11.9325 14.2598 11.8387 14.3536C11.7449 14.4473 11.6178 14.5 11.4852 14.5ZM16 14C15.4067 14 14.8266 14.1759 14.3333 14.5056C13.8399 14.8352 13.4554 15.3038 13.2284 15.8519C13.0013 16.4001 12.9419 17.0033 13.0576 17.5853C13.1734 18.1672 13.4591 18.7018 13.8787 19.1213C14.2982 19.5409 14.8328 19.8266 15.4147 19.9424C15.9967 20.0581 16.5999 19.9987 17.148 19.7716C17.6962 19.5446 18.1648 19.1601 18.4944 18.6667C18.8241 18.1734 19 17.5933 19 17C18.9991 16.2046 18.6827 15.4421 18.1203 14.8797C17.5579 14.3173 16.7954 14.0009 16 14ZM17 17.5H16.5V18C16.5 18.1326 16.4473 18.2598 16.3535 18.3536C16.2598 18.4473 16.1326 18.5 16 18.5C15.8674 18.5 15.7402 18.4473 15.6464 18.3536C15.5527 18.2598 15.5 18.1326 15.5 18V17.5H15C14.8674 17.5 14.7402 17.4473 14.6464 17.3536C14.5527 17.2598 14.5 17.1326 14.5 17C14.5 16.8674 14.5527 16.7402 14.6464 16.6464C14.7402 16.5527 14.8674 16.5 15 16.5H15.5V16C15.5 15.8674 15.5527 15.7402 15.6464 15.6464C15.7402 15.5527 15.8674 15.5 16 15.5C16.1326 15.5 16.2598 15.5527 16.3535 15.6464C16.4473 15.7402 16.5 15.8674 16.5 16V16.5H17C17.1326 16.5 17.2598 16.5527 17.3535 16.6464C17.4473 16.7402 17.5 16.8674 17.5 17C17.5 17.1326 17.4473 17.2598 17.3535 17.3536C17.2598 17.4473 17.1326 17.5 17 17.5Z" fill="#FEFAE0"/>
</svg>
