<svg width="16" height="20" viewBox="0 0 16 20" fill="none" xmlns="http://www.w3.org/2000/svg">
<path d="M4 10.5H6V11.5H4V10.5ZM7 13.5H9V12.5H7V13.5ZM4 15.5H6V14.5H4V15.5ZM4 13.5H6V12.5H4V13.5ZM7 11.5H9V10.5H7V11.5ZM7 15.5H9V14.5H7V15.5ZM16 6V17.5C16 18.163 15.7366 18.7989 15.2678 19.2678C14.7989 19.7366 14.163 20 13.5 20H2.5C1.83696 20 1.20107 19.7366 0.732233 19.2678C0.263392 18.7989 0 18.163 0 17.5V2.5C0 1.83696 0.263392 1.20107 0.732233 0.732233C1.20107 0.263392 1.83696 0 2.5 0L10.0055 0L16 6ZM13 9.5H3V16.5H13V9.5ZM15 6.5L9.5 1V4C9.5 4.66304 9.76339 5.29893 10.2322 5.76777C10.7011 6.23661 11.337 6.5 12 6.5H15ZM10 15.5H12V14.5H10V15.5ZM10 11.5H12V10.5H10V11.5ZM10 13.5H12V12.5H10V13.5Z" fill="#FEFAE0"/>
</svg>
